<svg width="1497" height="149" viewBox="0 0 1497 149" fill="none" xmlns="http://www.w3.org/2000/svg">
<path d="M815.675 65.5V72.4H807.725V65.5H803.675V83H807.725V75.825H815.675V83H819.725V65.5H815.675Z" fill="white"/>
<path d="M829.99 83.2C834.265 83.2 837.365 80.325 837.365 76.275C837.365 72.225 834.265 69.35 829.99 69.35C825.715 69.35 822.59 72.225 822.59 76.275C822.59 80.325 825.715 83.2 829.99 83.2ZM829.99 80C828.04 80 826.54 78.6 826.54 76.275C826.54 73.95 828.04 72.55 829.99 72.55C831.94 72.55 833.415 73.95 833.415 76.275C833.415 78.6 831.94 80 829.99 80Z" fill="white"/>
<path d="M857.197 69.35C855.172 69.35 853.422 70.175 852.347 71.55C851.397 70.075 849.797 69.35 847.922 69.35C846.197 69.35 844.697 69.95 843.697 71.1V69.55H839.972V83H843.872V76.25C843.872 73.85 845.097 72.725 846.822 72.725C848.447 72.725 849.372 73.725 849.372 75.9V83H853.272V76.25C853.272 73.85 854.497 72.725 856.247 72.725C857.822 72.725 858.797 73.725 858.797 75.9V83H862.697V75.3C862.697 71.2 860.397 69.35 857.197 69.35Z" fill="white"/>
<path d="M879.514 76.325C879.514 72 876.464 69.35 872.514 69.35C868.414 69.35 865.339 72.25 865.339 76.275C865.339 80.275 868.364 83.2 873.014 83.2C875.439 83.2 877.314 82.45 878.564 81.025L876.489 78.775C875.564 79.65 874.539 80.075 873.114 80.075C871.064 80.075 869.639 79.05 869.264 77.375H879.439C879.464 77.05 879.514 76.625 879.514 76.325ZM872.539 72.3C874.289 72.3 875.564 73.4 875.839 75.1H869.214C869.489 73.375 870.764 72.3 872.539 72.3Z" fill="white"/>
<path d="M984.813 67.1V65.5H972.813V83H974.663V75.575H983.713V73.975H974.663V67.1H984.813Z" fill="white"/>
<path d="M992.321 69.75C990.246 69.75 988.296 70.4 986.971 71.525L987.771 72.85C988.846 71.9 990.446 71.3 992.146 71.3C994.596 71.3 995.871 72.525 995.871 74.775V75.575H991.696C987.921 75.575 986.621 77.275 986.621 79.3C986.621 81.575 988.446 83.125 991.421 83.125C993.596 83.125 995.146 82.3 995.946 80.95V83H997.646V74.85C997.646 71.45 995.721 69.75 992.321 69.75ZM991.696 81.725C989.596 81.725 988.371 80.775 988.371 79.25C988.371 77.9 989.196 76.9 991.746 76.9H995.871V79.05C995.171 80.775 993.696 81.725 991.696 81.725Z" fill="white"/>
<path d="M1007.97 83.125C1010.19 83.125 1012.07 82.225 1013.12 80.525L1011.79 79.625C1010.89 80.95 1009.49 81.55 1007.97 81.55C1005.09 81.55 1002.99 79.525 1002.99 76.425C1002.99 73.35 1005.09 71.3 1007.97 71.3C1009.49 71.3 1010.89 71.925 1011.79 73.25L1013.12 72.35C1012.07 70.625 1010.19 69.75 1007.97 69.75C1004.04 69.75 1001.19 72.5 1001.19 76.425C1001.19 80.35 1004.04 83.125 1007.97 83.125Z" fill="white"/>
<path d="M1017.5 66.975C1018.25 66.975 1018.8 66.4 1018.8 65.675C1018.8 65 1018.23 64.45 1017.5 64.45C1016.78 64.45 1016.2 65.025 1016.2 65.7C1016.2 66.4 1016.78 66.975 1017.5 66.975ZM1016.6 83H1018.38V69.85H1016.6V83Z" fill="white"/>
<path d="M1023.32 83H1025.09V64.45H1023.32V83Z" fill="white"/>
<path d="M1030.93 66.975C1031.68 66.975 1032.23 66.4 1032.23 65.675C1032.23 65 1031.66 64.45 1030.93 64.45C1030.21 64.45 1029.63 65.025 1029.63 65.7C1029.63 66.4 1030.21 66.975 1030.93 66.975ZM1030.03 83H1031.81V69.85H1030.03V83Z" fill="white"/>
<path d="M1043.04 80.925C1042.54 81.375 1041.82 81.6 1041.09 81.6C1039.62 81.6 1038.82 80.75 1038.82 79.2V71.35H1042.82V69.85H1038.82V66.975H1037.04V69.85H1034.69V71.35H1037.04V79.3C1037.04 81.725 1038.42 83.125 1040.89 83.125C1041.92 83.125 1042.97 82.825 1043.67 82.2L1043.04 80.925Z" fill="white"/>
<path d="M1047.8 66.975C1048.55 66.975 1049.1 66.4 1049.1 65.675C1049.1 65 1048.53 64.45 1047.8 64.45C1047.08 64.45 1046.5 65.025 1046.5 65.7C1046.5 66.4 1047.08 66.975 1047.8 66.975ZM1046.9 83H1048.68V69.85H1046.9V83Z" fill="white"/>
<path d="M1065.09 76.425C1065.09 72.475 1062.41 69.75 1058.71 69.75C1055.01 69.75 1052.29 72.525 1052.29 76.425C1052.29 80.325 1055.09 83.125 1059.19 83.125C1061.26 83.125 1063.09 82.375 1064.26 80.975L1063.26 79.825C1062.26 80.975 1060.84 81.55 1059.24 81.55C1056.36 81.55 1054.26 79.725 1054.06 76.975H1065.06C1065.06 76.775 1065.09 76.575 1065.09 76.425ZM1058.71 71.275C1061.29 71.275 1063.16 73.075 1063.39 75.65H1054.06C1054.29 73.075 1056.16 71.275 1058.71 71.275Z" fill="white"/>
<path d="M1072.23 83.125C1075.65 83.125 1077.65 81.65 1077.65 79.375C1077.65 74.325 1069.13 77 1069.13 73.45C1069.13 72.2 1070.18 71.275 1072.55 71.275C1073.9 71.275 1075.28 71.6 1076.43 72.4L1077.2 70.975C1076.1 70.225 1074.25 69.75 1072.55 69.75C1069.2 69.75 1067.35 71.35 1067.35 73.5C1067.35 78.7 1075.88 76 1075.88 79.425C1075.88 80.725 1074.85 81.575 1072.35 81.575C1070.5 81.575 1068.73 80.925 1067.68 80.1L1066.88 81.5C1067.95 82.425 1070.05 83.125 1072.23 83.125Z" fill="white"/>
<path d="M1199.61 83L1195.34 77C1197.89 76.175 1199.34 74.25 1199.34 71.5C1199.34 67.75 1196.64 65.5 1192.19 65.5H1185.64V83H1187.49V77.45H1192.19C1192.69 77.45 1193.14 77.425 1193.59 77.375L1197.59 83H1199.61ZM1192.14 75.875H1187.49V67.1H1192.14C1195.64 67.1 1197.49 68.7 1197.49 71.5C1197.49 74.25 1195.64 75.875 1192.14 75.875Z" fill="white"/>
<path d="M1208.7 83.125C1212.55 83.125 1215.38 80.325 1215.38 76.425C1215.38 72.525 1212.55 69.75 1208.7 69.75C1204.85 69.75 1202 72.525 1202 76.425C1202 80.325 1204.85 83.125 1208.7 83.125ZM1208.7 81.55C1205.9 81.55 1203.8 79.5 1203.8 76.425C1203.8 73.35 1205.9 71.3 1208.7 71.3C1211.5 71.3 1213.58 73.35 1213.58 76.425C1213.58 79.5 1211.5 81.55 1208.7 81.55Z" fill="white"/>
<path d="M1224.38 83.125C1228.23 83.125 1231.05 80.325 1231.05 76.425C1231.05 72.525 1228.23 69.75 1224.38 69.75C1220.53 69.75 1217.68 72.525 1217.68 76.425C1217.68 80.325 1220.53 83.125 1224.38 83.125ZM1224.38 81.55C1221.58 81.55 1219.48 79.5 1219.48 76.425C1219.48 73.35 1221.58 71.3 1224.38 71.3C1227.18 71.3 1229.25 73.35 1229.25 76.425C1229.25 79.5 1227.18 81.55 1224.38 81.55Z" fill="white"/>
<path d="M1251.08 69.75C1248.7 69.75 1246.83 70.825 1245.88 72.525C1245.08 70.675 1243.38 69.75 1241.2 69.75C1239 69.75 1237.3 70.675 1236.38 72.25V69.85H1234.68V83H1236.45V76.1C1236.45 73.1 1238.18 71.35 1240.85 71.35C1243.25 71.35 1244.65 72.775 1244.65 75.55V83H1246.43V76.1C1246.43 73.1 1248.13 71.35 1250.83 71.35C1253.2 71.35 1254.6 72.775 1254.6 75.55V83H1256.38V75.375C1256.38 71.6 1254.28 69.75 1251.08 69.75Z" fill="white"/>
<path d="M1264.71 83.125C1268.14 83.125 1270.14 81.65 1270.14 79.375C1270.14 74.325 1261.61 77 1261.61 73.45C1261.61 72.2 1262.66 71.275 1265.04 71.275C1266.39 71.275 1267.76 71.6 1268.91 72.4L1269.69 70.975C1268.59 70.225 1266.74 69.75 1265.04 69.75C1261.69 69.75 1259.84 71.35 1259.84 73.5C1259.84 78.7 1268.36 76 1268.36 79.425C1268.36 80.725 1267.34 81.575 1264.84 81.575C1262.99 81.575 1261.21 80.925 1260.16 80.1L1259.36 81.5C1260.44 82.425 1262.54 83.125 1264.71 83.125Z" fill="white"/>
<path d="M1370.24 83.15C1372.81 83.15 1375.11 82.275 1376.66 80.575L1375.49 79.4C1374.06 80.875 1372.31 81.5 1370.31 81.5C1366.09 81.5 1362.91 78.4 1362.91 74.25C1362.91 70.1 1366.09 67 1370.31 67C1372.31 67 1374.06 67.625 1375.49 69.075L1376.66 67.9C1375.11 66.2 1372.81 65.35 1370.26 65.35C1364.99 65.35 1361.09 69.125 1361.09 74.25C1361.09 79.375 1364.99 83.15 1370.24 83.15Z" fill="white"/>
<path d="M1385.02 83.125C1388.87 83.125 1391.7 80.325 1391.7 76.425C1391.7 72.525 1388.87 69.75 1385.02 69.75C1381.17 69.75 1378.32 72.525 1378.32 76.425C1378.32 80.325 1381.17 83.125 1385.02 83.125ZM1385.02 81.55C1382.22 81.55 1380.12 79.5 1380.12 76.425C1380.12 73.35 1382.22 71.3 1385.02 71.3C1387.82 71.3 1389.9 73.35 1389.9 76.425C1389.9 79.5 1387.82 81.55 1385.02 81.55Z" fill="white"/>
<path d="M1402.02 69.75C1399.74 69.75 1397.97 70.675 1397.02 72.275V69.85H1395.32V83H1397.09V76.1C1397.09 73.1 1398.87 71.35 1401.69 71.35C1404.19 71.35 1405.64 72.775 1405.64 75.55V83H1407.42V75.375C1407.42 71.6 1405.22 69.75 1402.02 69.75Z" fill="white"/>
<path d="M1418.54 80.925C1418.04 81.375 1417.31 81.6 1416.59 81.6C1415.11 81.6 1414.31 80.75 1414.31 79.2V71.35H1418.31V69.85H1414.31V66.975H1412.54V69.85H1410.19V71.35H1412.54V79.3C1412.54 81.725 1413.91 83.125 1416.39 83.125C1417.41 83.125 1418.46 82.825 1419.16 82.2L1418.54 80.925Z" fill="white"/>
<path d="M1426.99 69.75C1424.92 69.75 1422.97 70.4 1421.64 71.525L1422.44 72.85C1423.52 71.9 1425.12 71.3 1426.82 71.3C1429.27 71.3 1430.54 72.525 1430.54 74.775V75.575H1426.37C1422.59 75.575 1421.29 77.275 1421.29 79.3C1421.29 81.575 1423.12 83.125 1426.09 83.125C1428.27 83.125 1429.82 82.3 1430.62 80.95V83H1432.32V74.85C1432.32 71.45 1430.39 69.75 1426.99 69.75ZM1426.37 81.725C1424.27 81.725 1423.04 80.775 1423.04 79.25C1423.04 77.9 1423.87 76.9 1426.42 76.9H1430.54V79.05C1429.84 80.775 1428.37 81.725 1426.37 81.725Z" fill="white"/>
<path d="M1442.64 83.125C1444.86 83.125 1446.74 82.225 1447.79 80.525L1446.46 79.625C1445.56 80.95 1444.16 81.55 1442.64 81.55C1439.76 81.55 1437.66 79.525 1437.66 76.425C1437.66 73.35 1439.76 71.3 1442.64 71.3C1444.16 71.3 1445.56 71.925 1446.46 73.25L1447.79 72.35C1446.74 70.625 1444.86 69.75 1442.64 69.75C1438.71 69.75 1435.86 72.5 1435.86 76.425C1435.86 80.35 1438.71 83.125 1442.64 83.125Z" fill="white"/>
<path d="M1457.72 80.925C1457.22 81.375 1456.5 81.6 1455.77 81.6C1454.3 81.6 1453.5 80.75 1453.5 79.2V71.35H1457.5V69.85H1453.5V66.975H1451.72V69.85H1449.37V71.35H1451.72V79.3C1451.72 81.725 1453.1 83.125 1455.57 83.125C1456.6 83.125 1457.65 82.825 1458.35 82.2L1457.72 80.925Z" fill="white"/>
<path d="M1460.36 77H1466.91V75.45H1460.36V77Z" fill="white"/>
<path d="M1480.96 69.85V76.75C1480.96 79.75 1479.23 81.525 1476.48 81.525C1473.98 81.525 1472.53 80.1 1472.53 77.3V69.85H1470.76V77.475C1470.76 81.25 1472.96 83.125 1476.31 83.125C1478.41 83.125 1480.11 82.2 1481.03 80.6V83H1482.73V69.85H1480.96Z" fill="white"/>
<path d="M1491.23 83.125C1494.65 83.125 1496.65 81.65 1496.65 79.375C1496.65 74.325 1488.13 77 1488.13 73.45C1488.13 72.2 1489.18 71.275 1491.55 71.275C1492.9 71.275 1494.28 71.6 1495.43 72.4L1496.2 70.975C1495.1 70.225 1493.25 69.75 1491.55 69.75C1488.2 69.75 1486.35 71.35 1486.35 73.5C1486.35 78.7 1494.88 76 1494.88 79.425C1494.88 80.725 1493.85 81.575 1491.35 81.575C1489.5 81.575 1487.73 80.925 1486.68 80.1L1485.88 81.5C1486.95 82.425 1489.05 83.125 1491.23 83.125Z" fill="white"/>
<path d="M0 0H256V99C256 112.261 250.732 124.979 241.355 134.355C231.979 143.732 219.261 149 206 149H50C36.7392 149 24.0215 143.732 14.6447 134.355C5.26784 124.979 0 112.261 0 99V0Z" fill="#E0B973"/>
<path d="M87.605 93.245C88.235 93.245 88.235 93.26 88.235 93.68V95.84C88.235 97.235 88.16 97.385 87.47 97.475L87.14 97.52C87.02 97.61 87.02 97.955 87.14 98.045C87.86 98.015 88.595 98 89.345 98C90.035 98 90.77 98.015 91.52 98.045C91.64 97.955 91.64 97.61 91.52 97.52L91.16 97.46C90.47 97.34 90.38 97.235 90.38 95.84V90.26C90.38 88.865 90.47 88.73 91.16 88.625L91.46 88.58C91.58 88.49 91.58 88.145 91.46 88.055C90.77 88.085 90.08 88.1 89.345 88.1C88.625 88.1 87.89 88.085 87.065 88.055C86.945 88.145 86.945 88.49 87.065 88.58L87.47 88.64C88.16 88.745 88.235 88.865 88.235 90.26V92C88.235 92.435 88.235 92.45 87.605 92.45H84.485C83.87 92.45 83.855 92.435 83.855 92V90.26C83.855 88.865 83.945 88.715 84.59 88.625L84.905 88.58C85.025 88.49 85.025 88.145 84.905 88.055C84.245 88.085 83.495 88.1 82.82 88.1C82.1 88.1 81.32 88.085 80.585 88.055C80.465 88.145 80.465 88.49 80.585 88.58L80.945 88.625C81.635 88.715 81.71 88.865 81.71 90.26V95.84C81.71 97.235 81.635 97.385 80.945 97.475L80.585 97.52C80.465 97.61 80.465 97.955 80.585 98.045C81.35 98.015 82.1 98 82.82 98C83.495 98 84.245 98.015 85.1 98.045C85.22 97.955 85.22 97.61 85.1 97.52L84.62 97.46C83.945 97.37 83.855 97.235 83.855 95.84V93.68C83.855 93.26 83.87 93.245 84.485 93.245H87.605Z" fill="#14274A"/>
<path d="M107.04 87.86C103.905 87.86 101.685 90.155 101.685 93.125C101.685 96.26 103.875 98.24 106.89 98.24C110.115 98.24 112.305 96.275 112.305 93.005C112.305 89.96 110.16 87.86 107.04 87.86ZM109.905 93.2C109.905 95.63 109.14 97.55 107.175 97.55C104.73 97.55 104.085 94.61 104.085 92.78C104.085 90.275 105.075 88.55 106.92 88.55C108.78 88.55 109.905 90.635 109.905 93.2Z" fill="#14274A"/>
<path d="M125.277 95.84C125.277 97.235 125.187 97.37 124.512 97.445L123.837 97.52C123.717 97.61 123.717 97.955 123.837 98.045C124.887 98.015 125.667 98 126.387 98C127.062 98 127.812 98.015 128.787 98.045C128.892 97.955 128.892 97.61 128.787 97.52L128.187 97.445C127.512 97.355 127.422 97.235 127.422 95.84V89.225C127.422 88.835 127.467 88.79 127.827 88.79H128.727C129.852 88.79 130.062 89.495 130.317 90.455C130.392 90.575 130.797 90.545 130.872 90.41C130.842 89.555 130.947 88.34 131.097 87.83C131.067 87.785 130.962 87.725 130.872 87.725C130.782 87.725 130.737 87.74 130.677 87.77C130.542 88.085 130.317 88.1 129.327 88.1H123.747C122.607 88.1 122.562 88.04 122.487 87.785C122.427 87.74 122.352 87.725 122.277 87.725C122.202 87.725 122.127 87.755 122.067 87.8C121.962 88.385 121.887 89.315 121.572 90.35C121.662 90.545 121.947 90.575 122.127 90.485C122.577 89.39 122.892 88.79 123.987 88.79H124.917C125.277 88.79 125.277 88.865 125.277 89.225V95.84Z" fill="#14274A"/>
<path d="M143.975 89.375C143.975 88.82 143.975 88.79 144.47 88.79H145.67C146.405 88.79 146.855 88.97 147.14 89.255C147.335 89.465 147.545 89.915 147.71 90.44C147.86 90.575 148.205 90.545 148.265 90.38C148.19 89.375 148.085 88.295 148.07 88.055C147.875 88.085 147.02 88.1 146.06 88.1H142.88C142.16 88.1 141.425 88.085 140.72 88.055C140.57 88.145 140.555 88.49 140.69 88.58L141.065 88.655C141.74 88.79 141.83 88.88 141.83 90.245V95.84C141.83 97.22 141.74 97.31 141.065 97.415L140.36 97.52C140.24 97.595 140.24 97.955 140.36 98.045C141.485 98.015 142.22 98 142.94 98H144.89C146.12 98 147.56 98.015 148.355 98.045C148.565 97.64 148.925 96.425 148.985 95.645C148.925 95.465 148.55 95.405 148.43 95.57C147.605 97.265 147.095 97.31 145.79 97.31C144.695 97.31 144.41 97.19 144.215 96.92C144.035 96.665 143.975 96.185 143.975 95.495V93.71C143.975 93.26 143.99 93.245 144.395 93.245H145.43C146.21 93.245 146.39 93.365 146.54 94.085L146.615 94.46C146.72 94.595 147.095 94.58 147.17 94.445C147.14 93.965 147.125 93.425 147.125 92.855C147.125 92.285 147.14 91.745 147.17 91.265C147.095 91.13 146.72 91.13 146.615 91.25L146.54 91.625C146.39 92.345 146.21 92.45 145.43 92.45H144.395C143.99 92.45 143.975 92.42 143.975 92V89.375Z" fill="#14274A"/>
<path d="M161.867 90.26C161.867 88.865 161.957 88.745 162.632 88.64L163.022 88.58C163.142 88.49 163.142 88.145 163.022 88.055C162.272 88.085 161.522 88.1 160.802 88.1C160.082 88.1 159.332 88.085 158.552 88.055C158.372 88.145 158.372 88.49 158.522 88.58L158.957 88.64C159.632 88.73 159.722 88.865 159.722 90.26V95.84C159.722 97.235 159.632 97.355 158.957 97.445L158.387 97.52C158.267 97.61 158.297 97.955 158.432 98.045C159.362 98.015 160.112 98 160.802 98H162.812C164.042 98 165.482 98.015 166.277 98.045C166.487 97.64 166.847 96.395 166.922 95.615C166.817 95.435 166.472 95.375 166.352 95.525C165.467 97.265 165.047 97.31 163.682 97.31C162.587 97.31 162.317 97.19 162.122 96.935C161.927 96.695 161.867 96.215 161.867 95.51V90.26Z" fill="#14274A"/>
<path d="M182.941 95.195C182.941 93.545 181.756 92.675 180.826 92.18L179.836 91.655C179.086 91.265 178.471 90.635 178.471 89.945C178.471 89.195 179.011 88.55 180.001 88.55C181.081 88.55 181.726 89.645 181.981 90.41C182.116 90.56 182.491 90.545 182.566 90.365C182.566 89.36 182.416 88.55 182.296 88.22C182.116 88.19 181.981 88.16 181.786 88.1C181.186 87.92 180.571 87.86 180.076 87.86C177.901 87.86 176.581 89.03 176.596 90.725C176.596 92.21 177.781 93.11 178.861 93.65C179.761 94.1 180.901 94.82 180.901 96.035C180.901 96.785 180.391 97.55 179.281 97.55C178.006 97.55 177.001 96.17 176.701 95.195C176.581 95.03 176.236 95.045 176.131 95.24C176.131 96.26 176.326 97.34 176.611 97.67C176.926 97.85 177.781 98.24 179.161 98.24C181.426 98.24 182.941 97.04 182.941 95.195Z" fill="#14274A"/>
<path d="M51.28 56.36C51.28 52.64 51.52 52.32 53.32 52.04L54.36 51.88C54.68 51.64 54.68 50.72 54.36 50.48C52.36 50.56 50.36 50.6 48.44 50.6C46.52 50.6 44.52 50.56 42.44 50.48C41.96 50.72 41.96 51.64 42.36 51.88L43.52 52.04C45.32 52.28 45.56 52.64 45.56 56.36V71.24C45.56 74.96 45.32 75.28 43.52 75.52L42 75.72C41.68 75.96 41.76 76.88 42.12 77.12C44.6 77.04 46.6 77 48.44 77H53.8C57.08 77 60.92 77.04 63.04 77.12C63.6 76.04 64.56 72.72 64.76 70.64C64.48 70.16 63.56 70 63.24 70.4C60.88 75.04 59.76 75.16 56.12 75.16C53.2 75.16 52.48 74.84 51.96 74.16C51.44 73.52 51.28 72.24 51.28 70.36V56.36Z" fill="#14274A"/>
<path d="M73.3131 66.36C73.3131 70.72 74.1931 73.68 76.2731 75.4C78.4331 77.16 81.1531 77.64 84.1931 77.64C87.4331 77.64 90.3531 76.64 92.1131 74.76C94.3131 72.32 94.6731 68.88 94.6731 65.12V60.64C94.6731 57.4 94.8331 54.36 95.2731 53.32C95.6331 52.48 96.3931 52.24 97.4331 52L98.1531 51.84C98.4731 51.52 98.3931 50.72 98.1531 50.48C96.6331 50.56 95.1531 50.6 93.6731 50.6C92.0331 50.6 90.4731 50.56 88.3131 50.48C88.0731 50.72 87.9931 51.52 88.3131 51.84L89.3931 52.04C90.4731 52.24 91.3531 52.48 91.7131 53.32C92.1531 54.36 92.3131 57.4 92.3131 60.64V65.48C92.3131 70.96 90.7531 75.44 85.6331 75.44C79.5531 75.44 79.0331 70.28 79.0331 65.6V56.36C79.0331 52.64 79.2731 52.32 81.0731 52L82.0331 51.84C82.3531 51.6 82.3531 50.72 82.0331 50.48C80.1131 50.56 78.1531 50.6 76.1931 50.6C74.2731 50.6 72.2731 50.56 70.3531 50.48C69.9131 50.72 69.9531 51.6 70.2731 51.84L71.2731 52.04C73.0731 52.4 73.3131 52.64 73.3131 56.36V66.36Z" fill="#14274A"/>
<path d="M104.082 75.8C103.722 76.04 103.843 76.92 104.243 77.12C105.443 77.04 107.122 77 108.442 77C110.122 77 111.923 77.04 113.683 77.12C114.123 76.96 114.162 76 113.802 75.72L112.762 75.6C111.922 75.52 111.482 75.32 111.482 75.08C111.482 74.84 111.562 74.56 111.842 74C113.162 71.48 115.043 68.44 116.603 66.16C117.203 66.92 120.242 71.6 120.842 72.68C121.842 74.36 122.003 74.72 122.003 75.04C122.003 75.28 121.522 75.48 120.522 75.6L119.442 75.72C119.042 75.92 119.202 76.96 119.562 77.12C121.722 77.04 123.523 77 126.283 77C129.523 77 130.763 77.04 132.523 77.12C132.923 76.84 132.923 76 132.643 75.72L131.402 75.56C129.882 75.36 128.882 74.8 127.482 72.68C126.042 70.52 124.083 67.52 121.083 62.88C120.683 62.28 120.522 61.84 120.522 61.64C120.522 61.44 120.923 60.84 121.323 60.28C123.203 57.72 124.963 55.08 126.882 53.12C127.602 52.4 128.323 52.24 129.163 52.12L130.842 51.88C131.122 51.52 131.082 50.68 130.682 50.48C129.402 50.56 127.763 50.6 125.842 50.6C123.962 50.6 122.682 50.56 121.442 50.48C121.002 50.68 121.003 51.6 121.323 51.88L122.923 52.16C123.443 52.24 123.723 52.44 123.723 52.56C123.723 52.76 123.723 53.04 123.283 53.76C122.043 55.88 120.723 57.84 119.243 60.08C118.003 58.28 116.562 56.08 115.482 54.2C115.002 53.36 114.842 53 114.842 52.64C114.842 52.36 115.562 52.16 116.202 52.04L117.083 51.88C117.363 51.56 117.363 50.68 116.923 50.48C115.683 50.56 114.082 50.6 110.842 50.6C108.402 50.6 105.883 50.56 104.603 50.48C104.203 50.72 104.202 51.56 104.562 51.88L105.243 52C107.043 52.32 107.882 52.84 108.802 54.16C110.682 56.84 113.202 60.8 114.522 62.76C115.042 63.48 115.243 64 115.243 64.16C115.243 64.4 115.043 64.88 114.683 65.4C112.963 67.96 110.803 71.08 109.643 72.6C108.323 74.4 107.403 75.36 105.003 75.68L104.082 75.8Z" fill="#14274A"/>
<path d="M141.524 66.36C141.524 70.72 142.404 73.68 144.484 75.4C146.644 77.16 149.364 77.64 152.404 77.64C155.644 77.64 158.564 76.64 160.324 74.76C162.524 72.32 162.884 68.88 162.884 65.12V60.64C162.884 57.4 163.044 54.36 163.484 53.32C163.844 52.48 164.604 52.24 165.644 52L166.364 51.84C166.684 51.52 166.604 50.72 166.364 50.48C164.844 50.56 163.364 50.6 161.884 50.6C160.244 50.6 158.684 50.56 156.524 50.48C156.284 50.72 156.204 51.52 156.524 51.84L157.604 52.04C158.684 52.24 159.564 52.48 159.924 53.32C160.364 54.36 160.524 57.4 160.524 60.64V65.48C160.524 70.96 158.964 75.44 153.844 75.44C147.764 75.44 147.244 70.28 147.244 65.6V56.36C147.244 52.64 147.484 52.32 149.284 52L150.244 51.84C150.564 51.6 150.564 50.72 150.244 50.48C148.324 50.56 146.364 50.6 144.404 50.6C142.484 50.6 140.484 50.56 138.564 50.48C138.124 50.72 138.164 51.6 138.484 51.84L139.484 52.04C141.284 52.4 141.524 52.64 141.524 56.36V66.36Z" fill="#14274A"/>
<path d="M177.333 71.24C177.333 74.92 177.093 75.2 175.293 75.52L174.213 75.72C173.893 75.92 173.893 76.88 174.213 77.12C176.293 77.04 178.053 77 180.053 77C181.973 77 183.813 77.04 185.933 77.12C186.213 76.88 186.213 75.92 185.933 75.72L184.853 75.52C183.053 75.2 182.813 74.92 182.813 71.24V66.32C182.813 65.52 182.893 65.44 184.293 65.44C185.293 65.44 185.933 65.76 186.413 66.84C187.333 68.96 188.253 70.92 189.533 73.04C191.293 75.92 193.613 77.24 197.293 77.24C198.533 77.24 199.813 77.16 200.453 76.88C200.653 76.64 200.653 76.04 200.293 75.84C199.693 75.8 198.653 75.56 197.613 74.72C195.693 73.08 194.053 70.08 191.413 64.72C191.213 64.28 191.213 64.04 191.613 63.84C193.453 62.92 195.853 61.4 195.853 57.84C195.853 55.28 194.653 53.28 192.333 51.92C190.813 51 187.893 50.48 184.493 50.48C180.693 50.48 177.573 50.64 174.573 50.84C174.093 51.04 174.093 52.04 174.493 52.24L175.573 52.4C177.253 52.64 177.333 53.08 177.333 57.08V71.24ZM182.813 54.36C182.813 52.44 182.893 52.32 184.533 52.32C187.653 52.32 189.773 54.64 189.773 58.24C189.773 60.6 189.013 61.88 188.333 62.56C187.573 63.32 186.733 63.68 185.293 63.68C182.933 63.68 182.813 63.56 182.813 62.16V54.36Z" fill="#14274A"/>
<path d="M218.493 68.44C218.493 66.16 218.773 65.16 219.812 63.28L222.333 58.72C224.253 55.24 225.213 53.8 225.812 53.04C226.253 52.48 227.173 52.2 227.893 52.08L228.932 51.88C229.252 51.6 229.253 50.64 228.773 50.48C227.613 50.56 226.373 50.6 224.853 50.6C223.413 50.6 221.972 50.56 220.372 50.48C219.972 50.68 220.013 51.68 220.333 51.88L221.092 52.04C222.052 52.2 222.693 52.44 222.693 52.68C222.693 53.16 222.213 54.36 220.773 57.2C219.733 59.24 218.493 61.84 217.333 63.8C216.853 62.8 215.933 60.96 215.333 59.64L213.452 55.36C212.612 53.48 212.413 52.88 212.413 52.56C212.413 52.52 212.652 52.36 213.372 52.2L214.732 51.88C215.092 51.56 215.012 50.64 214.652 50.48C213.292 50.56 211.253 50.6 208.812 50.6C206.452 50.6 204.973 50.56 203.173 50.48C202.693 50.6 202.652 51.56 203.012 51.88L204.372 52.12C205.772 52.36 206.132 53 206.932 54.64L211.693 64.48C212.733 66.6 212.773 67.24 212.773 69.24V71.24C212.773 74.96 212.532 75.24 210.732 75.52L209.372 75.72C209.052 75.96 209.052 76.88 209.372 77.12C211.732 77.04 213.732 77 215.652 77C217.572 77 219.533 77.04 222.133 77.12C222.413 76.88 222.413 75.96 222.133 75.72L220.533 75.52C218.733 75.28 218.493 74.96 218.493 71.24V68.44Z" fill="#14274A"/>
</svg>
